<svg xmlns="http://www.w3.org/2000/svg" width="32" height="32" viewBox="0 0 32 32">
  <defs>
    <linearGradient id="g" x1="0%" y1="0%" x2="100%" y2="100%">
      <stop offset="0%" stop-color="#4C85F6"/>
      <stop offset="100%" stop-color="#7C5CFF"/>
    </linearGradient>
  </defs>
  <!-- Background -->
  <rect width="32" height="32" rx="7" fill="url(#g)"/>
  <!-- Document shape -->
  <path d="M9 5h10l5 5v17a1 1 0 01-1 1H9a1 1 0 01-1-1V6a1 1 0 011-1z" fill="#fff" opacity="0.95"/>
  <!-- Page fold -->
  <path d="M19 5v5h5" fill="none" stroke="#4C85F6" stroke-width="0.5" opacity="0.4"/>
  <!-- Text lines -->
  <rect x="11" y="12" width="10" height="1.5" rx="0.5" fill="#CBD5E1"/>
  <rect x="11" y="16" width="8" height="1.5" rx="0.5" fill="#CBD5E1"/>
  <rect x="11" y="20" width="10" height="1.5" rx="0.5" fill="#CBD5E1"/>
  <rect x="11" y="24" width="6" height="1.5" rx="0.5" fill="#CBD5E1"/>
  <!-- Redaction bars (black overlay) -->
  <rect x="11" y="11.5" width="10" height="2.5" rx="0.5" fill="#1E293B" opacity="0.85"/>
  <rect x="11" y="19.5" width="10" height="2.5" rx="0.5" fill="#1E293B" opacity="0.85"/>
</svg>
